<svg width="26px" height="26px" viewBox="263 216 26 26" version="1.1" xmlns="http://www.w3.org/2000/svg" xmlns:xlink="http://www.w3.org/1999/xlink">
    <!-- Generator: Sketch 3.8.3 (29802) - http://www.bohemiancoding.com/sketch -->
    <desc>Created with Sketch.</desc>
    <defs></defs>
    <g id="Group" stroke="none" stroke-width="1" fill="none" fill-rule="evenodd" transform="translate(263.500000, 216.500000)">
        <path d="M5.5,5.2998 L12.5,1.5668 L19.5,5.2998 L19.5,9.4998 L5.5,9.4998 L5.5,5.2998 Z M21.5,12.4998 L21.5,14.2498 L20.5,14.9998 L20.5,12.4998 L21.5,12.4998 Z M4.5,14.9998 L3.5,14.2498 L3.5,12.4998 L4.5,12.4998 L4.5,14.9998 Z M1,10.4998 L4.5,10.4998 L4.5,11.4998 L3,11.4998 C2.724,11.4998 2.5,11.7238 2.5,11.9998 L2.5,14.4998 C2.5,14.6568 2.574,14.8058 2.7,14.8998 L4.7,16.3998 C4.851,16.5138 5.054,16.5308 5.224,16.4468 C5.393,16.3628 5.5,16.1898 5.5,15.9998 L5.5,10.4998 L19.5,10.4998 L19.5,15.9998 C19.5,16.1898 19.607,16.3628 19.776,16.4468 C19.847,16.4828 19.924,16.4998 20,16.4998 C20.106,16.4998 20.212,16.4668 20.3,16.3998 L22.3,14.8998 C22.426,14.8058 22.5,14.6568 22.5,14.4998 L22.5,11.9998 C22.5,11.7238 22.276,11.4998 22,11.4998 L20.5,11.4998 L20.5,10.4998 L24,10.4998 C24.276,10.4998 24.5,10.2768 24.5,9.9998 C24.5,9.7238 24.276,9.4998 24,9.4998 L20.5,9.4998 L20.5,4.9998 C20.5,4.8158 20.398,4.6458 20.235,4.5588 L12.735,0.5588 C12.589,0.4808 12.411,0.4808 12.265,0.5588 L4.765,4.5588 C4.602,4.6458 4.5,4.8158 4.5,4.9998 L4.5,9.4998 L1,9.4998 C0.724,9.4998 0.5,9.7238 0.5,9.9998 C0.5,10.2768 0.724,10.4998 1,10.4998 L1,10.4998 Z" id="Fill-193" fill="#000000"></path>
        <path d="M8.5,13 L8.5,14 C8.5,14.276 8.724,14.5 9,14.5 C9.276,14.5 9.5,14.276 9.5,14 L9.5,13 C9.5,12.724 9.276,12.5 9,12.5 C8.724,12.5 8.5,12.724 8.5,13" id="Fill-194" fill="#000000"></path>
        <path d="M15.5,13 L15.5,14 C15.5,14.276 15.724,14.5 16,14.5 C16.276,14.5 16.5,14.276 16.5,14 L16.5,13 C16.5,12.724 16.276,12.5 16,12.5 C15.724,12.5 15.5,12.724 15.5,13" id="Fill-195" fill="#000000"></path>
        <path d="M21.125,21.1167 L18.026,22.4447 L12.739,19.5607 C12.665,19.5207 12.582,19.4997 12.5,19.4997 C12.418,19.4997 12.335,19.5207 12.261,19.5607 L6.974,22.4447 L3.875,21.1167 L2.18,17.3877 L5.223,19.4157 C5.409,19.5407 5.657,19.5267 5.825,19.3797 L9.028,16.6347 L12.209,18.9067 C12.383,19.0307 12.617,19.0307 12.791,18.9067 L15.972,16.6347 L19.175,19.3797 C19.345,19.5267 19.593,19.5397 19.777,19.4157 L22.82,17.3877 L21.125,21.1167 Z M12.5,23.4527 L9.587,22.1587 L12.5,20.5697 L15.412,22.1577 L12.5,23.4527 Z M23.723,15.5837 L19.538,18.3737 L16.325,15.6207 C16.151,15.4707 15.896,15.4587 15.709,15.5937 L12.5,17.8857 L9.291,15.5937 C9.104,15.4597 8.85,15.4707 8.675,15.6207 L5.462,18.3737 L1.277,15.5837 C1.091,15.4597 0.846,15.4737 0.676,15.6187 C0.506,15.7637 0.453,16.0037 0.545,16.2067 L3.045,21.7067 C3.096,21.8207 3.188,21.9107 3.303,21.9597 L6.803,23.4597 C6.944,23.5197 7.105,23.5127 7.239,23.4387 L8.482,22.7617 L12.297,24.4567 C12.361,24.4857 12.431,24.4997 12.5,24.4997 C12.569,24.4997 12.639,24.4857 12.703,24.4567 L16.518,22.7607 L17.761,23.4387 C17.835,23.4797 17.917,23.4997 18,23.4997 C18.066,23.4997 18.134,23.4867 18.197,23.4597 L21.697,21.9597 C21.812,21.9107 21.903,21.8207 21.955,21.7067 L24.455,16.2067 C24.548,16.0037 24.494,15.7637 24.324,15.6187 C24.154,15.4737 23.907,15.4607 23.723,15.5837 L23.723,15.5837 Z" id="Fill-196" fill="#000000"></path>
        <path d="M10.2764,5.0527 L7.2764,6.5527 C7.0294,6.6767 6.9294,6.9767 7.0524,7.2237 C7.1404,7.3987 7.3174,7.4997 7.5004,7.4997 C7.5754,7.4997 7.6514,7.4827 7.7234,7.4477 L10.7234,5.9477 C10.9704,5.8237 11.0704,5.5237 10.9474,5.2767 C10.8234,5.0287 10.5244,4.9297 10.2764,5.0527" id="Fill-197" fill="#000000"></path>
    </g>
</svg>
